<?xml version="1.0" encoding="UTF-8"?>
<svg id="Layer_1" data-name="Layer 1" xmlns="http://www.w3.org/2000/svg" viewBox="0 0 500 358.49">
  <defs>
    <style>
      .cls-1 {
        fill: #787878;
      }
    </style>
  </defs>
  <path class="cls-1" d="m461.94,211.99l38.06,39.42-14.14,42.7-35.31.82-28.74-32.02-14.78-.82-18.89,65.7-23,30.7-32.02-4.43-106.76-118.26s-69.81-5.75-73.91-7.39c-4.1-1.64-24.64-26.28-24.64-26.28l-86.23-6.57L0,179.24l41.58-16.33,86.23-6.57s20.54-24.63,24.64-26.28c4.1-1.64,73.91-7.39,73.91-7.39L333.12,4.43l32.02-4.43,23,30.7,18.89,65.7,14.78-.82,28.74-32.02,35.31.82,14.14,42.7-38.06,39.42v65.49Z"/>
</svg>